<svg xmlns="http://www.w3.org/2000/svg" xmlns:xlink="http://www.w3.org/1999/xlink" version="1.1" x="0px" y="0px" viewBox="0 0 50 62.5" enable-background="new 0 0 50 50" xml:space="preserve"><g><path d="M25,1c0,0-9.8,16.3,0,35C34.8,17.3,25,1,25,1z"/><path d="M3.7,16.1c0,0,3.8,15.1,20.3,20.3C18.8,19.9,3.7,16.1,3.7,16.1z"/><path d="M23.1,37.9c-11.7-6.1-21.9,0-21.9,0S11.4,44,23.1,37.9z"/><path d="M14.4,49c0,0,7.1-1.8,9.6-9.6C16.2,41.9,14.4,49,14.4,49z"/><path d="M35.6,49c0,0-1.8-7.1-9.6-9.6C28.5,47.2,35.6,49,35.6,49z"/><path d="M26.9,37.9c11.7,6.1,21.9,0,21.9,0S38.6,31.8,26.9,37.9z"/><path d="M46.3,16.1c0,0-15.1,3.8-20.3,20.3C42.5,31.2,46.3,16.1,46.3,16.1z"/></g></svg>